<mxfile host="app.diagrams.net" agent="Mozilla/5.0 (Windows NT 10.0; Win64; x64) AppleWebKit/537.36 (KHTML, like Gecko) Chrome/134.0.0.0 Safari/537.36" version="26.1.1">
  <diagram name="Pagina-1" id="xXN1keMJTsimZvRvfmzJ">
    <mxGraphModel dx="2261" dy="772" grid="1" gridSize="10" guides="1" tooltips="1" connect="1" arrows="1" fold="1" page="1" pageScale="1" pageWidth="827" pageHeight="1169" math="0" shadow="0">
      <root>
        <mxCell id="0" />
        <mxCell id="1" parent="0" />
        <mxCell id="oTNWS6xz9wXN6uvySlti-1" value="Accoglienza" style="ellipse;whiteSpace=wrap;html=1;aspect=fixed;" parent="1" vertex="1">
          <mxGeometry x="-20" y="10" width="90" height="90" as="geometry" />
        </mxCell>
        <mxCell id="oTNWS6xz9wXN6uvySlti-3" value="CLASSIFY CALLS" style="ellipse;whiteSpace=wrap;html=1;aspect=fixed;" parent="1" vertex="1">
          <mxGeometry x="-270" y="100" width="80" height="80" as="geometry" />
        </mxCell>
        <mxCell id="oTNWS6xz9wXN6uvySlti-4" value="" style="endArrow=none;html=1;rounded=0;" parent="1" edge="1">
          <mxGeometry width="50" height="50" relative="1" as="geometry">
            <mxPoint x="-200" y="120" as="sourcePoint" />
            <mxPoint x="-20" y="70" as="targetPoint" />
          </mxGeometry>
        </mxCell>
        <mxCell id="oTNWS6xz9wXN6uvySlti-5" value="&lt;div&gt;PHONES&lt;/div&gt;&lt;div&gt;&amp;nbsp;NOT WORKING&lt;/div&gt;" style="edgeLabel;html=1;align=center;verticalAlign=middle;resizable=0;points=[];" parent="oTNWS6xz9wXN6uvySlti-4" vertex="1" connectable="0">
          <mxGeometry x="0.1816" y="2" relative="1" as="geometry">
            <mxPoint as="offset" />
          </mxGeometry>
        </mxCell>
        <mxCell id="oTNWS6xz9wXN6uvySlti-6" value="&lt;div&gt;&lt;br&gt;&lt;/div&gt;&lt;div&gt;&lt;br&gt;&lt;/div&gt;" style="edgeLabel;html=1;align=center;verticalAlign=middle;resizable=0;points=[];" parent="oTNWS6xz9wXN6uvySlti-4" vertex="1" connectable="0">
          <mxGeometry x="0.0314" y="5" relative="1" as="geometry">
            <mxPoint y="-1" as="offset" />
          </mxGeometry>
        </mxCell>
        <mxCell id="oTNWS6xz9wXN6uvySlti-8" value="INCOMING HANDLER" style="ellipse;whiteSpace=wrap;html=1;aspect=fixed;" parent="1" vertex="1">
          <mxGeometry x="-493" y="160" width="80" height="80" as="geometry" />
        </mxCell>
        <mxCell id="oTNWS6xz9wXN6uvySlti-10" value="" style="endArrow=none;html=1;rounded=0;fontSize=20;" parent="1" target="oTNWS6xz9wXN6uvySlti-3" edge="1">
          <mxGeometry width="50" height="50" relative="1" as="geometry">
            <mxPoint x="-420" y="190" as="sourcePoint" />
            <mxPoint x="-330" y="150" as="targetPoint" />
          </mxGeometry>
        </mxCell>
        <mxCell id="oTNWS6xz9wXN6uvySlti-12" value="&lt;font style=&quot;font-size: 15px;&quot;&gt;IN&lt;/font&gt;" style="edgeLabel;html=1;align=center;verticalAlign=middle;resizable=0;points=[];" parent="oTNWS6xz9wXN6uvySlti-10" vertex="1" connectable="0">
          <mxGeometry x="0.0298" relative="1" as="geometry">
            <mxPoint as="offset" />
          </mxGeometry>
        </mxCell>
        <mxCell id="oTNWS6xz9wXN6uvySlti-13" value="" style="endArrow=none;html=1;rounded=0;" parent="1" source="oTNWS6xz9wXN6uvySlti-8" edge="1">
          <mxGeometry width="50" height="50" relative="1" as="geometry">
            <mxPoint x="-620" y="270" as="sourcePoint" />
            <mxPoint x="-380" y="280" as="targetPoint" />
          </mxGeometry>
        </mxCell>
        <mxCell id="oTNWS6xz9wXN6uvySlti-15" value="&lt;font style=&quot;font-size: 15px;&quot;&gt;NO CALLS&lt;/font&gt;" style="edgeLabel;html=1;align=center;verticalAlign=middle;resizable=0;points=[];" parent="oTNWS6xz9wXN6uvySlti-13" vertex="1" connectable="0">
          <mxGeometry x="-0.0066" y="1" relative="1" as="geometry">
            <mxPoint x="3" y="-4" as="offset" />
          </mxGeometry>
        </mxCell>
        <mxCell id="oTNWS6xz9wXN6uvySlti-14" value="NO CALLS INCOMING&lt;div&gt;HANDLER&lt;/div&gt;" style="ellipse;whiteSpace=wrap;html=1;aspect=fixed;" parent="1" vertex="1">
          <mxGeometry x="-400" y="270" width="80" height="80" as="geometry" />
        </mxCell>
        <mxCell id="oTNWS6xz9wXN6uvySlti-17" value="" style="endArrow=none;html=1;rounded=0;" parent="1" edge="1">
          <mxGeometry width="50" height="50" relative="1" as="geometry">
            <mxPoint x="-400" y="430" as="sourcePoint" />
            <mxPoint x="-380" y="350" as="targetPoint" />
          </mxGeometry>
        </mxCell>
        <mxCell id="oTNWS6xz9wXN6uvySlti-18" value="&lt;font style=&quot;font-size: 14px;&quot;&gt;CERTAIN CALLS&lt;/font&gt;" style="edgeLabel;html=1;align=center;verticalAlign=middle;resizable=0;points=[];" parent="oTNWS6xz9wXN6uvySlti-17" vertex="1" connectable="0">
          <mxGeometry x="0.0452" relative="1" as="geometry">
            <mxPoint as="offset" />
          </mxGeometry>
        </mxCell>
        <mxCell id="oTNWS6xz9wXN6uvySlti-19" value="RACCOGLIERE CALLS LOG&lt;br&gt;ESCALATION &lt;br&gt;TO&lt;br&gt;2ND LEVEL" style="whiteSpace=wrap;html=1;aspect=fixed;strokeColor=#990000;" parent="1" vertex="1">
          <mxGeometry x="-450" y="430" width="100" height="100" as="geometry" />
        </mxCell>
        <mxCell id="oTNWS6xz9wXN6uvySlti-20" value="" style="endArrow=none;html=1;rounded=0;" parent="1" edge="1">
          <mxGeometry width="50" height="50" relative="1" as="geometry">
            <mxPoint x="-250" y="400" as="sourcePoint" />
            <mxPoint x="-330" y="330" as="targetPoint" />
          </mxGeometry>
        </mxCell>
        <mxCell id="oTNWS6xz9wXN6uvySlti-22" value="&lt;font style=&quot;font-size: 14px;&quot;&gt;ALL CALLS&lt;/font&gt;" style="edgeLabel;html=1;align=center;verticalAlign=middle;resizable=0;points=[];" parent="1" vertex="1" connectable="0">
          <mxGeometry x="-283.01435131779886" y="365.79736969055875" as="geometry" />
        </mxCell>
        <mxCell id="oTNWS6xz9wXN6uvySlti-23" value="&lt;font style=&quot;font-size: 14px;&quot;&gt;NO AUDIO&lt;/font&gt;" style="edgeLabel;html=1;align=center;verticalAlign=middle;resizable=0;points=[];" parent="1" vertex="1" connectable="0">
          <mxGeometry x="-667.0043513177989" y="389.99736969055874" as="geometry" />
        </mxCell>
        <mxCell id="oTNWS6xz9wXN6uvySlti-24" value="&lt;font style=&quot;font-size: 14px;&quot;&gt;POOR QUALITY&lt;/font&gt;" style="edgeLabel;html=1;align=center;verticalAlign=middle;resizable=0;points=[];" parent="1" vertex="1" connectable="0">
          <mxGeometry x="-547.0043513177989" y="379.99736969055874" as="geometry" />
        </mxCell>
        <mxCell id="oTNWS6xz9wXN6uvySlti-25" value="&lt;font style=&quot;font-size: 15px;&quot;&gt;NONE&lt;/font&gt;" style="edgeLabel;html=1;align=center;verticalAlign=middle;resizable=0;points=[];" parent="1" vertex="1" connectable="0">
          <mxGeometry x="-280.00435131779886" y="519.9973696905588" as="geometry">
            <mxPoint x="-16" y="-12" as="offset" />
          </mxGeometry>
        </mxCell>
        <mxCell id="oTNWS6xz9wXN6uvySlti-26" value="&lt;font style=&quot;font-size: 14px;&quot;&gt;SOME&lt;/font&gt;" style="edgeLabel;html=1;align=center;verticalAlign=middle;resizable=0;points=[];" parent="1" vertex="1" connectable="0">
          <mxGeometry x="-290.00435131779886" y="614.9973696905588" as="geometry">
            <mxPoint x="60" y="-24" as="offset" />
          </mxGeometry>
        </mxCell>
        <mxCell id="oTNWS6xz9wXN6uvySlti-27" value="&lt;font style=&quot;font-size: 15px;&quot;&gt;OUT&lt;/font&gt;" style="edgeLabel;html=1;align=center;verticalAlign=middle;resizable=0;points=[];" parent="1" vertex="1" connectable="0">
          <mxGeometry x="-190.00435131779886" y="219.99736969055874" as="geometry">
            <mxPoint x="125" y="-46" as="offset" />
          </mxGeometry>
        </mxCell>
        <mxCell id="oTNWS6xz9wXN6uvySlti-28" value="&lt;font style=&quot;font-size: 15px;&quot;&gt;CALL QUALITY&lt;/font&gt;" style="edgeLabel;html=1;align=center;verticalAlign=middle;resizable=0;points=[];" parent="1" vertex="1" connectable="0">
          <mxGeometry x="-547.0043513177989" y="249.99736969055877" as="geometry">
            <mxPoint y="-1" as="offset" />
          </mxGeometry>
        </mxCell>
        <mxCell id="oTNWS6xz9wXN6uvySlti-29" value="ALL CALLS INCOMING HANDLER" style="ellipse;whiteSpace=wrap;html=1;aspect=fixed;" parent="1" vertex="1">
          <mxGeometry x="-270" y="390" width="80" height="80" as="geometry" />
        </mxCell>
        <mxCell id="oTNWS6xz9wXN6uvySlti-30" value="" style="endArrow=none;html=1;rounded=0;" parent="1" edge="1">
          <mxGeometry width="50" height="50" relative="1" as="geometry">
            <mxPoint x="-350" y="570" as="sourcePoint" />
            <mxPoint x="-250" y="450" as="targetPoint" />
          </mxGeometry>
        </mxCell>
        <mxCell id="oTNWS6xz9wXN6uvySlti-32" value="RACCOGLIERE CALLS LOG&lt;br&gt;ESCALATION &lt;br&gt;TO&lt;br&gt;2ND LEVEL" style="whiteSpace=wrap;html=1;aspect=fixed;strokeColor=#990000;" parent="1" vertex="1">
          <mxGeometry x="-450" y="570" width="100" height="100" as="geometry" />
        </mxCell>
        <mxCell id="oTNWS6xz9wXN6uvySlti-34" value="" style="endArrow=none;html=1;rounded=0;exitX=1;exitY=1;exitDx=0;exitDy=0;" parent="1" source="oTNWS6xz9wXN6uvySlti-3" edge="1">
          <mxGeometry width="50" height="50" relative="1" as="geometry">
            <mxPoint x="-230" y="490" as="sourcePoint" />
            <mxPoint x="-100" y="330" as="targetPoint" />
          </mxGeometry>
        </mxCell>
        <mxCell id="oTNWS6xz9wXN6uvySlti-35" value="ALL HANDLER&amp;nbsp;" style="ellipse;whiteSpace=wrap;html=1;aspect=fixed;" parent="1" vertex="1">
          <mxGeometry x="-110" y="320" width="80" height="80" as="geometry" />
        </mxCell>
        <mxCell id="oTNWS6xz9wXN6uvySlti-36" value="" style="endArrow=none;html=1;rounded=0;entryX=0.038;entryY=0.75;entryDx=0;entryDy=0;entryPerimeter=0;" parent="1" target="oTNWS6xz9wXN6uvySlti-8" edge="1">
          <mxGeometry width="50" height="50" relative="1" as="geometry">
            <mxPoint x="-610" y="270" as="sourcePoint" />
            <mxPoint x="-829.0135519942851" y="210.29505959650217" as="targetPoint" />
          </mxGeometry>
        </mxCell>
        <mxCell id="oTNWS6xz9wXN6uvySlti-37" value="QUALITY HANDLER" style="ellipse;whiteSpace=wrap;html=1;aspect=fixed;" parent="1" vertex="1">
          <mxGeometry x="-657" y="270" width="80" height="80" as="geometry" />
        </mxCell>
        <mxCell id="oTNWS6xz9wXN6uvySlti-38" value="" style="endArrow=none;html=1;rounded=0;exitX=0.5;exitY=0;exitDx=0;exitDy=0;" parent="1" source="oTNWS6xz9wXN6uvySlti-61" edge="1">
          <mxGeometry width="50" height="50" relative="1" as="geometry">
            <mxPoint x="-150" y="580" as="sourcePoint" />
            <mxPoint x="-210" y="460" as="targetPoint" />
          </mxGeometry>
        </mxCell>
        <mxCell id="oTNWS6xz9wXN6uvySlti-39" value="" style="endArrow=none;html=1;rounded=0;" parent="1" edge="1">
          <mxGeometry width="50" height="50" relative="1" as="geometry">
            <mxPoint x="-707" y="440" as="sourcePoint" />
            <mxPoint x="-637" y="350" as="targetPoint" />
          </mxGeometry>
        </mxCell>
        <mxCell id="oTNWS6xz9wXN6uvySlti-40" value="" style="endArrow=none;html=1;rounded=0;" parent="1" target="oTNWS6xz9wXN6uvySlti-37" edge="1">
          <mxGeometry width="50" height="50" relative="1" as="geometry">
            <mxPoint x="-517" y="420" as="sourcePoint" />
            <mxPoint x="-477" y="420" as="targetPoint" />
          </mxGeometry>
        </mxCell>
        <mxCell id="oTNWS6xz9wXN6uvySlti-42" value="RACCOGLIERE CALLS LOG&lt;br&gt;ESCALATION &lt;br&gt;TO&lt;br&gt;2ND LEVEL" style="whiteSpace=wrap;html=1;aspect=fixed;strokeColor=#990000;" parent="1" vertex="1">
          <mxGeometry x="-790" y="440" width="100" height="100" as="geometry" />
        </mxCell>
        <mxCell id="oTNWS6xz9wXN6uvySlti-43" value="POOR QUALITY HANDLER" style="ellipse;whiteSpace=wrap;html=1;aspect=fixed;" parent="1" vertex="1">
          <mxGeometry x="-557" y="410" width="80" height="80" as="geometry" />
        </mxCell>
        <mxCell id="oTNWS6xz9wXN6uvySlti-44" value="" style="endArrow=none;html=1;rounded=0;" parent="1" edge="1">
          <mxGeometry width="50" height="50" relative="1" as="geometry">
            <mxPoint x="-547" y="480" as="sourcePoint" />
            <mxPoint x="-667" y="580" as="targetPoint" />
          </mxGeometry>
        </mxCell>
        <mxCell id="oTNWS6xz9wXN6uvySlti-45" value="RACCOGLIERE INTERNET SPEED TEST&lt;br&gt;ESCALATION &lt;br&gt;TO&lt;br&gt;2ND LEVEL" style="whiteSpace=wrap;html=1;aspect=fixed;labelBorderColor=none;strokeColor=#006633;" parent="1" vertex="1">
          <mxGeometry x="-760" y="565" width="100" height="100" as="geometry" />
        </mxCell>
        <mxCell id="oTNWS6xz9wXN6uvySlti-46" value="&lt;font style=&quot;font-size: 14px;&quot;&gt;ALL&lt;/font&gt;" style="edgeLabel;html=1;align=center;verticalAlign=middle;resizable=0;points=[];" parent="1" vertex="1" connectable="0">
          <mxGeometry x="-607.0043513177989" y="529.9973696905588" as="geometry" />
        </mxCell>
        <mxCell id="oTNWS6xz9wXN6uvySlti-47" value="&lt;font style=&quot;font-size: 14px;&quot;&gt;SOME&lt;/font&gt;" style="edgeLabel;html=1;align=center;verticalAlign=middle;resizable=0;points=[];" parent="1" vertex="1" connectable="0">
          <mxGeometry x="-517.0043513177989" y="589.9973696905588" as="geometry">
            <mxPoint x="-24" y="-12" as="offset" />
          </mxGeometry>
        </mxCell>
        <mxCell id="oTNWS6xz9wXN6uvySlti-48" value="" style="endArrow=none;html=1;rounded=0;" parent="1" edge="1">
          <mxGeometry width="50" height="50" relative="1" as="geometry">
            <mxPoint x="-550" y="670" as="sourcePoint" />
            <mxPoint x="-522" y="490" as="targetPoint" />
          </mxGeometry>
        </mxCell>
        <mxCell id="oTNWS6xz9wXN6uvySlti-52" value="" style="endArrow=none;html=1;rounded=0;entryX=1.034;entryY=0.697;entryDx=0;entryDy=0;entryPerimeter=0;" parent="1" target="oTNWS6xz9wXN6uvySlti-3" edge="1">
          <mxGeometry width="50" height="50" relative="1" as="geometry">
            <mxPoint x="-40" y="200" as="sourcePoint" />
            <mxPoint x="-110" y="170" as="targetPoint" />
          </mxGeometry>
        </mxCell>
        <mxCell id="oTNWS6xz9wXN6uvySlti-53" value="&lt;font style=&quot;font-size: 15px;&quot;&gt;ALL&lt;/font&gt;" style="edgeLabel;html=1;align=center;verticalAlign=middle;resizable=0;points=[];" parent="oTNWS6xz9wXN6uvySlti-52" vertex="1" connectable="0">
          <mxGeometry x="0.0757" y="-4" relative="1" as="geometry">
            <mxPoint x="-78" y="78" as="offset" />
          </mxGeometry>
        </mxCell>
        <mxCell id="oTNWS6xz9wXN6uvySlti-56" value="RACCOGLIERE CALL LOGS + DISPLAY DISPOSITIVO DURANTE UNA CHIAMATA&amp;nbsp; &lt;br&gt;ESCALATION &lt;br&gt;TO&lt;br&gt;2ND LEVEL" style="whiteSpace=wrap;html=1;aspect=fixed;strokeColor=#0000FF;" parent="1" vertex="1">
          <mxGeometry x="-40" y="200" width="140" height="140" as="geometry" />
        </mxCell>
        <mxCell id="oTNWS6xz9wXN6uvySlti-57" value="" style="endArrow=none;html=1;rounded=0;exitX=1;exitY=0;exitDx=0;exitDy=0;" parent="1" source="oTNWS6xz9wXN6uvySlti-61" edge="1">
          <mxGeometry width="50" height="50" relative="1" as="geometry">
            <mxPoint x="-130" y="580" as="sourcePoint" />
            <mxPoint x="-80" y="400" as="targetPoint" />
          </mxGeometry>
        </mxCell>
        <mxCell id="oTNWS6xz9wXN6uvySlti-60" value="&lt;font style=&quot;font-size: 15px;&quot;&gt;SOME&lt;/font&gt;" style="edgeLabel;html=1;align=center;verticalAlign=middle;resizable=0;points=[];" parent="oTNWS6xz9wXN6uvySlti-57" vertex="1" connectable="0">
          <mxGeometry x="0.0677" y="-1" relative="1" as="geometry">
            <mxPoint as="offset" />
          </mxGeometry>
        </mxCell>
        <mxCell id="oTNWS6xz9wXN6uvySlti-58" value="" style="endArrow=none;html=1;rounded=0;" parent="1" edge="1">
          <mxGeometry width="50" height="50" relative="1" as="geometry">
            <mxPoint x="20" y="530" as="sourcePoint" />
            <mxPoint x="-40" y="390" as="targetPoint" />
          </mxGeometry>
        </mxCell>
        <mxCell id="oTNWS6xz9wXN6uvySlti-59" value="&lt;font style=&quot;font-size: 15px;&quot;&gt;ALL&lt;/font&gt;" style="edgeLabel;html=1;align=center;verticalAlign=middle;resizable=0;points=[];" parent="oTNWS6xz9wXN6uvySlti-58" vertex="1" connectable="0">
          <mxGeometry x="0.0716" y="-1" relative="1" as="geometry">
            <mxPoint as="offset" />
          </mxGeometry>
        </mxCell>
        <mxCell id="oTNWS6xz9wXN6uvySlti-61" value="SOME DEVICES NOCALLS ALLS HANDLER" style="ellipse;whiteSpace=wrap;html=1;aspect=fixed;" parent="1" vertex="1">
          <mxGeometry x="-260" y="670" width="80" height="80" as="geometry" />
        </mxCell>
        <mxCell id="oTNWS6xz9wXN6uvySlti-62" value="ISW HANDLER ALL" style="ellipse;whiteSpace=wrap;html=1;aspect=fixed;" parent="1" vertex="1">
          <mxGeometry x="-10" y="530" width="80" height="80" as="geometry" />
        </mxCell>
        <mxCell id="oTNWS6xz9wXN6uvySlti-63" value="" style="endArrow=none;html=1;rounded=0;exitX=0.5;exitY=0;exitDx=0;exitDy=0;" parent="1" source="oTNWS6xz9wXN6uvySlti-68" edge="1">
          <mxGeometry width="50" height="50" relative="1" as="geometry">
            <mxPoint x="-50" y="680" as="sourcePoint" />
            <mxPoint y="600" as="targetPoint" />
          </mxGeometry>
        </mxCell>
        <mxCell id="oTNWS6xz9wXN6uvySlti-64" value="&lt;font style=&quot;font-size: 15px;&quot;&gt;NO&lt;/font&gt;" style="edgeLabel;html=1;align=center;verticalAlign=middle;resizable=0;points=[];" parent="oTNWS6xz9wXN6uvySlti-63" vertex="1" connectable="0">
          <mxGeometry x="-0.0697" y="-1" relative="1" as="geometry">
            <mxPoint as="offset" />
          </mxGeometry>
        </mxCell>
        <mxCell id="oTNWS6xz9wXN6uvySlti-65" value="" style="endArrow=none;html=1;rounded=0;entryX=0.972;entryY=0.775;entryDx=0;entryDy=0;entryPerimeter=0;" parent="1" target="oTNWS6xz9wXN6uvySlti-62" edge="1">
          <mxGeometry width="50" height="50" relative="1" as="geometry">
            <mxPoint x="120" y="650" as="sourcePoint" />
            <mxPoint x="170" y="600" as="targetPoint" />
          </mxGeometry>
        </mxCell>
        <mxCell id="oTNWS6xz9wXN6uvySlti-67" value="&lt;font style=&quot;font-size: 15px;&quot;&gt;YES&lt;/font&gt;" style="edgeLabel;html=1;align=center;verticalAlign=middle;resizable=0;points=[];" parent="1" vertex="1" connectable="0">
          <mxGeometry x="-30.004548070855925" y="640.0000731397807" as="geometry">
            <mxPoint x="127" y="-19" as="offset" />
          </mxGeometry>
        </mxCell>
        <mxCell id="oTNWS6xz9wXN6uvySlti-68" value="&lt;font style=&quot;font-size: 15px;&quot;&gt;REPORT TO ISP&lt;/font&gt;" style="whiteSpace=wrap;html=1;aspect=fixed;strokeColor=#994C00;" parent="1" vertex="1">
          <mxGeometry x="-40" y="660" width="100" height="100" as="geometry" />
        </mxCell>
        <mxCell id="oTNWS6xz9wXN6uvySlti-69" value="RACCOGLIERE CALLS LOG&lt;br&gt;ESCALATION &lt;br&gt;TO&lt;br&gt;2ND LEVEL" style="whiteSpace=wrap;html=1;aspect=fixed;strokeColor=#990000;" parent="1" vertex="1">
          <mxGeometry x="70" y="650" width="100" height="100" as="geometry" />
        </mxCell>
        <mxCell id="oTNWS6xz9wXN6uvySlti-70" value="FORNIRE PARAMETRI FIREWALL" style="text;html=1;align=center;verticalAlign=middle;resizable=0;points=[];autosize=1;strokeColor=none;fillColor=none;" parent="1" vertex="1">
          <mxGeometry x="50" y="625" width="210" height="30" as="geometry" />
        </mxCell>
        <mxCell id="HidZqeDaJN0wGdAQT4S1-1" value="" style="endArrow=none;html=1;rounded=0;" parent="1" source="HidZqeDaJN0wGdAQT4S1-6" edge="1">
          <mxGeometry width="50" height="50" relative="1" as="geometry">
            <mxPoint x="-340" y="810" as="sourcePoint" />
            <mxPoint x="-260" y="720" as="targetPoint" />
          </mxGeometry>
        </mxCell>
        <mxCell id="HidZqeDaJN0wGdAQT4S1-5" value="&lt;font style=&quot;font-size: 15px;&quot;&gt;MOBILE APP&lt;/font&gt;" style="edgeLabel;html=1;align=center;verticalAlign=middle;resizable=0;points=[];" parent="HidZqeDaJN0wGdAQT4S1-1" vertex="1" connectable="0">
          <mxGeometry x="-0.34" y="-2" relative="1" as="geometry">
            <mxPoint as="offset" />
          </mxGeometry>
        </mxCell>
        <mxCell id="HidZqeDaJN0wGdAQT4S1-2" value="" style="endArrow=none;html=1;rounded=0;" parent="1" edge="1">
          <mxGeometry width="50" height="50" relative="1" as="geometry">
            <mxPoint x="-260" y="860" as="sourcePoint" />
            <mxPoint x="-240" y="745" as="targetPoint" />
          </mxGeometry>
        </mxCell>
        <mxCell id="HidZqeDaJN0wGdAQT4S1-9" value="CORDLESS" style="edgeLabel;html=1;align=center;verticalAlign=middle;resizable=0;points=[];" parent="HidZqeDaJN0wGdAQT4S1-2" vertex="1" connectable="0">
          <mxGeometry x="-0.5297" y="-1" relative="1" as="geometry">
            <mxPoint x="4" y="-23" as="offset" />
          </mxGeometry>
        </mxCell>
        <mxCell id="HidZqeDaJN0wGdAQT4S1-4" value="" style="endArrow=none;html=1;rounded=0;" parent="1" edge="1">
          <mxGeometry width="50" height="50" relative="1" as="geometry">
            <mxPoint x="-20" y="840" as="sourcePoint" />
            <mxPoint x="-180" y="720" as="targetPoint" />
          </mxGeometry>
        </mxCell>
        <mxCell id="HidZqeDaJN0wGdAQT4S1-7" value="&lt;font style=&quot;font-size: 14px;&quot;&gt;DESKPHONE&lt;/font&gt;" style="edgeLabel;html=1;align=center;verticalAlign=middle;resizable=0;points=[];" parent="HidZqeDaJN0wGdAQT4S1-4" vertex="1" connectable="0">
          <mxGeometry x="-0.269" y="2" relative="1" as="geometry">
            <mxPoint as="offset" />
          </mxGeometry>
        </mxCell>
        <mxCell id="HidZqeDaJN0wGdAQT4S1-6" value="MOBILE APP NOCALLS ALL HANDLER" style="ellipse;whiteSpace=wrap;html=1;aspect=fixed;" parent="1" vertex="1">
          <mxGeometry x="-530" y="857.36" width="80" height="80" as="geometry" />
        </mxCell>
        <mxCell id="HidZqeDaJN0wGdAQT4S1-10" value="" style="endArrow=none;html=1;rounded=0;" parent="1" edge="1">
          <mxGeometry width="50" height="50" relative="1" as="geometry">
            <mxPoint x="-570" y="967.36" as="sourcePoint" />
            <mxPoint x="-520" y="917.36" as="targetPoint" />
          </mxGeometry>
        </mxCell>
        <mxCell id="HidZqeDaJN0wGdAQT4S1-11" value="&lt;font style=&quot;font-size: 15px;&quot;&gt;4G&lt;/font&gt;" style="edgeLabel;html=1;align=center;verticalAlign=middle;resizable=0;points=[];" parent="HidZqeDaJN0wGdAQT4S1-10" vertex="1" connectable="0">
          <mxGeometry x="-0.22" y="-2" relative="1" as="geometry">
            <mxPoint as="offset" />
          </mxGeometry>
        </mxCell>
        <mxCell id="HidZqeDaJN0wGdAQT4S1-12" value="" style="endArrow=none;html=1;rounded=0;" parent="1" edge="1">
          <mxGeometry width="50" height="50" relative="1" as="geometry">
            <mxPoint x="-420" y="967.36" as="sourcePoint" />
            <mxPoint x="-460" y="927.36" as="targetPoint" />
          </mxGeometry>
        </mxCell>
        <mxCell id="HidZqeDaJN0wGdAQT4S1-13" value="&lt;font style=&quot;font-size: 15px;&quot;&gt;WIFI&lt;/font&gt;" style="edgeLabel;html=1;align=center;verticalAlign=middle;resizable=0;points=[];" parent="HidZqeDaJN0wGdAQT4S1-12" vertex="1" connectable="0">
          <mxGeometry x="-0.1" y="-3" relative="1" as="geometry">
            <mxPoint as="offset" />
          </mxGeometry>
        </mxCell>
        <mxCell id="HidZqeDaJN0wGdAQT4S1-14" value="G4 MOBILE NOCALLS ALL HANDLER" style="ellipse;whiteSpace=wrap;html=1;aspect=fixed;" parent="1" vertex="1">
          <mxGeometry x="-620" y="967.36" width="80" height="80" as="geometry" />
        </mxCell>
        <mxCell id="HidZqeDaJN0wGdAQT4S1-15" value="WIFI MOBILE NOCALLS ALL HANDLER" style="ellipse;whiteSpace=wrap;html=1;aspect=fixed;" parent="1" vertex="1">
          <mxGeometry x="-450" y="967.36" width="80" height="80" as="geometry" />
        </mxCell>
        <mxCell id="HidZqeDaJN0wGdAQT4S1-16" value="" style="endArrow=none;html=1;rounded=0;" parent="1" edge="1">
          <mxGeometry width="50" height="50" relative="1" as="geometry">
            <mxPoint x="-340" y="1087.36" as="sourcePoint" />
            <mxPoint x="-375" y="1027.36" as="targetPoint" />
          </mxGeometry>
        </mxCell>
        <mxCell id="HidZqeDaJN0wGdAQT4S1-17" value="&lt;font style=&quot;font-size: 15px;&quot;&gt;NO&lt;/font&gt;" style="edgeLabel;html=1;align=center;verticalAlign=middle;resizable=0;points=[];" parent="HidZqeDaJN0wGdAQT4S1-16" vertex="1" connectable="0">
          <mxGeometry x="-0.0697" y="-1" relative="1" as="geometry">
            <mxPoint as="offset" />
          </mxGeometry>
        </mxCell>
        <mxCell id="HidZqeDaJN0wGdAQT4S1-18" value="" style="endArrow=none;html=1;rounded=0;entryX=0.972;entryY=0.775;entryDx=0;entryDy=0;entryPerimeter=0;" parent="1" edge="1">
          <mxGeometry width="50" height="50" relative="1" as="geometry">
            <mxPoint x="-460" y="1107.36" as="sourcePoint" />
            <mxPoint x="-440" y="1037.36" as="targetPoint" />
          </mxGeometry>
        </mxCell>
        <mxCell id="HidZqeDaJN0wGdAQT4S1-19" value="&lt;font style=&quot;font-size: 13px;&quot;&gt;YES&lt;/font&gt;" style="edgeLabel;html=1;align=center;verticalAlign=middle;resizable=0;points=[];" parent="HidZqeDaJN0wGdAQT4S1-18" vertex="1" connectable="0">
          <mxGeometry x="0.034" y="-1" relative="1" as="geometry">
            <mxPoint as="offset" />
          </mxGeometry>
        </mxCell>
        <mxCell id="HidZqeDaJN0wGdAQT4S1-20" value="SWITCH OFF WIFI HANDLER" style="ellipse;whiteSpace=wrap;html=1;aspect=fixed;" parent="1" vertex="1">
          <mxGeometry x="-503.01" y="1107.36" width="80" height="80" as="geometry" />
        </mxCell>
        <mxCell id="HidZqeDaJN0wGdAQT4S1-21" value="" style="endArrow=none;html=1;rounded=0;entryX=0.972;entryY=0.775;entryDx=0;entryDy=0;entryPerimeter=0;" parent="1" edge="1">
          <mxGeometry width="50" height="50" relative="1" as="geometry">
            <mxPoint x="-633" y="1097.36" as="sourcePoint" />
            <mxPoint x="-613" y="1027.36" as="targetPoint" />
          </mxGeometry>
        </mxCell>
        <mxCell id="HidZqeDaJN0wGdAQT4S1-22" value="&lt;font style=&quot;font-size: 13px;&quot;&gt;YES&lt;/font&gt;" style="edgeLabel;html=1;align=center;verticalAlign=middle;resizable=0;points=[];" parent="HidZqeDaJN0wGdAQT4S1-21" vertex="1" connectable="0">
          <mxGeometry x="0.034" y="-1" relative="1" as="geometry">
            <mxPoint as="offset" />
          </mxGeometry>
        </mxCell>
        <mxCell id="HidZqeDaJN0wGdAQT4S1-23" value="" style="endArrow=none;html=1;rounded=0;" parent="1" edge="1">
          <mxGeometry width="50" height="50" relative="1" as="geometry">
            <mxPoint x="-550" y="1097.36" as="sourcePoint" />
            <mxPoint x="-565" y="1047.36" as="targetPoint" />
          </mxGeometry>
        </mxCell>
        <mxCell id="HidZqeDaJN0wGdAQT4S1-24" value="&lt;font style=&quot;font-size: 15px;&quot;&gt;NO&lt;/font&gt;" style="edgeLabel;html=1;align=center;verticalAlign=middle;resizable=0;points=[];" parent="HidZqeDaJN0wGdAQT4S1-23" vertex="1" connectable="0">
          <mxGeometry x="-0.0697" y="-1" relative="1" as="geometry">
            <mxPoint as="offset" />
          </mxGeometry>
        </mxCell>
        <mxCell id="HidZqeDaJN0wGdAQT4S1-25" value="SWITCH ON WIFI HANDLER" style="ellipse;whiteSpace=wrap;html=1;aspect=fixed;" parent="1" vertex="1">
          <mxGeometry x="-600" y="1097.36" width="80" height="80" as="geometry" />
        </mxCell>
        <mxCell id="HidZqeDaJN0wGdAQT4S1-26" value="" style="endArrow=none;html=1;rounded=0;entryX=0.972;entryY=0.775;entryDx=0;entryDy=0;entryPerimeter=0;" parent="1" source="e3faSNz6x6QTLMcB8ye6-26" edge="1">
          <mxGeometry width="50" height="50" relative="1" as="geometry">
            <mxPoint x="-610" y="1227.36" as="sourcePoint" />
            <mxPoint x="-590" y="1157.36" as="targetPoint" />
          </mxGeometry>
        </mxCell>
        <mxCell id="HidZqeDaJN0wGdAQT4S1-27" value="&lt;font style=&quot;font-size: 13px;&quot;&gt;YES&lt;/font&gt;" style="edgeLabel;html=1;align=center;verticalAlign=middle;resizable=0;points=[];" parent="HidZqeDaJN0wGdAQT4S1-26" vertex="1" connectable="0">
          <mxGeometry x="0.034" y="-1" relative="1" as="geometry">
            <mxPoint as="offset" />
          </mxGeometry>
        </mxCell>
        <mxCell id="HidZqeDaJN0wGdAQT4S1-28" value="" style="endArrow=none;html=1;rounded=0;" parent="1" edge="1">
          <mxGeometry width="50" height="50" relative="1" as="geometry">
            <mxPoint x="-525" y="1227.36" as="sourcePoint" />
            <mxPoint x="-540" y="1177.36" as="targetPoint" />
          </mxGeometry>
        </mxCell>
        <mxCell id="HidZqeDaJN0wGdAQT4S1-29" value="&lt;font style=&quot;font-size: 15px;&quot;&gt;NO&lt;/font&gt;" style="edgeLabel;html=1;align=center;verticalAlign=middle;resizable=0;points=[];" parent="HidZqeDaJN0wGdAQT4S1-28" vertex="1" connectable="0">
          <mxGeometry x="-0.0697" y="-1" relative="1" as="geometry">
            <mxPoint as="offset" />
          </mxGeometry>
        </mxCell>
        <mxCell id="e3faSNz6x6QTLMcB8ye6-1" value="RACCOGLIERE CALLS LOG&lt;br&gt;ESCALATION &lt;br&gt;TO&lt;br&gt;2ND LEVEL" style="whiteSpace=wrap;html=1;aspect=fixed;strokeColor=#990000;" parent="1" vertex="1">
          <mxGeometry x="-730" y="1087.36" width="100" height="100" as="geometry" />
        </mxCell>
        <mxCell id="e3faSNz6x6QTLMcB8ye6-2" value="RACCOGLIERE CALLS LOG&lt;br&gt;ESCALATION &lt;br&gt;TO&lt;br&gt;2ND LEVEL" style="whiteSpace=wrap;html=1;aspect=fixed;strokeColor=#990000;" parent="1" vertex="1">
          <mxGeometry x="-550" y="1227.36" width="100" height="100" as="geometry" />
        </mxCell>
        <mxCell id="e3faSNz6x6QTLMcB8ye6-3" value="RACCOGLIERE CALLS LOG&lt;br&gt;ESCALATION &lt;br&gt;TO&lt;br&gt;2ND LEVEL" style="whiteSpace=wrap;html=1;aspect=fixed;strokeColor=#990000;" parent="1" vertex="1">
          <mxGeometry x="-370" y="1087.36" width="100" height="100" as="geometry" />
        </mxCell>
        <mxCell id="e3faSNz6x6QTLMcB8ye6-6" value="" style="endArrow=none;html=1;rounded=0;exitX=0.6;exitY=0;exitDx=0;exitDy=0;exitPerimeter=0;" parent="1" source="e3faSNz6x6QTLMcB8ye6-2" edge="1">
          <mxGeometry width="50" height="50" relative="1" as="geometry">
            <mxPoint x="-460" y="1237.36" as="sourcePoint" />
            <mxPoint x="-475" y="1187.36" as="targetPoint" />
          </mxGeometry>
        </mxCell>
        <mxCell id="e3faSNz6x6QTLMcB8ye6-7" value="&lt;font style=&quot;font-size: 15px;&quot;&gt;NO&lt;/font&gt;" style="edgeLabel;html=1;align=center;verticalAlign=middle;resizable=0;points=[];" parent="e3faSNz6x6QTLMcB8ye6-6" vertex="1" connectable="0">
          <mxGeometry x="-0.0697" y="-1" relative="1" as="geometry">
            <mxPoint as="offset" />
          </mxGeometry>
        </mxCell>
        <mxCell id="e3faSNz6x6QTLMcB8ye6-8" value="" style="endArrow=none;html=1;rounded=0;" parent="1" target="HidZqeDaJN0wGdAQT4S1-20" edge="1">
          <mxGeometry width="50" height="50" relative="1" as="geometry">
            <mxPoint x="-400" y="1237.36" as="sourcePoint" />
            <mxPoint x="-370" y="1216.36" as="targetPoint" />
          </mxGeometry>
        </mxCell>
        <mxCell id="e3faSNz6x6QTLMcB8ye6-9" value="&lt;font style=&quot;font-size: 13px;&quot;&gt;YES&lt;/font&gt;" style="edgeLabel;html=1;align=center;verticalAlign=middle;resizable=0;points=[];" parent="e3faSNz6x6QTLMcB8ye6-8" vertex="1" connectable="0">
          <mxGeometry x="0.034" y="-1" relative="1" as="geometry">
            <mxPoint as="offset" />
          </mxGeometry>
        </mxCell>
        <mxCell id="e3faSNz6x6QTLMcB8ye6-11" value="SOME DEVICES QUALITY HANDLER" style="ellipse;whiteSpace=wrap;html=1;aspect=fixed;" parent="1" vertex="1">
          <mxGeometry x="-590" y="665" width="80" height="80" as="geometry" />
        </mxCell>
        <mxCell id="e3faSNz6x6QTLMcB8ye6-13" value="" style="endArrow=none;html=1;rounded=0;" parent="1" source="HidZqeDaJN0wGdAQT4S1-6" target="e3faSNz6x6QTLMcB8ye6-11" edge="1">
          <mxGeometry width="50" height="50" relative="1" as="geometry">
            <mxPoint x="-610" y="830" as="sourcePoint" />
            <mxPoint x="-530" y="740" as="targetPoint" />
          </mxGeometry>
        </mxCell>
        <mxCell id="e3faSNz6x6QTLMcB8ye6-14" value="&lt;font style=&quot;font-size: 15px;&quot;&gt;MOBILE APP&lt;/font&gt;" style="edgeLabel;html=1;align=center;verticalAlign=middle;resizable=0;points=[];" parent="e3faSNz6x6QTLMcB8ye6-13" vertex="1" connectable="0">
          <mxGeometry x="-0.34" y="-2" relative="1" as="geometry">
            <mxPoint as="offset" />
          </mxGeometry>
        </mxCell>
        <mxCell id="e3faSNz6x6QTLMcB8ye6-15" value="DESKPHONE NOCALLS ALL HANDLER" style="ellipse;whiteSpace=wrap;html=1;aspect=fixed;" parent="1" vertex="1">
          <mxGeometry x="-50" y="840" width="80" height="80" as="geometry" />
        </mxCell>
        <mxCell id="e3faSNz6x6QTLMcB8ye6-16" value="" style="endArrow=none;html=1;rounded=0;entryX=0.972;entryY=0.775;entryDx=0;entryDy=0;entryPerimeter=0;" parent="1" edge="1">
          <mxGeometry width="50" height="50" relative="1" as="geometry">
            <mxPoint x="-60" y="979.9999999999999" as="sourcePoint" />
            <mxPoint x="-40" y="909.9999999999999" as="targetPoint" />
          </mxGeometry>
        </mxCell>
        <mxCell id="e3faSNz6x6QTLMcB8ye6-17" value="&lt;font style=&quot;font-size: 13px;&quot;&gt;YES&lt;/font&gt;" style="edgeLabel;html=1;align=center;verticalAlign=middle;resizable=0;points=[];" parent="e3faSNz6x6QTLMcB8ye6-16" vertex="1" connectable="0">
          <mxGeometry x="0.034" y="-1" relative="1" as="geometry">
            <mxPoint as="offset" />
          </mxGeometry>
        </mxCell>
        <mxCell id="e3faSNz6x6QTLMcB8ye6-19" value="" style="endArrow=none;html=1;rounded=0;" parent="1" edge="1">
          <mxGeometry width="50" height="50" relative="1" as="geometry">
            <mxPoint x="60" y="967.3599999999999" as="sourcePoint" />
            <mxPoint x="25" y="907.3599999999999" as="targetPoint" />
          </mxGeometry>
        </mxCell>
        <mxCell id="e3faSNz6x6QTLMcB8ye6-20" value="&lt;font style=&quot;font-size: 15px;&quot;&gt;NO&lt;/font&gt;" style="edgeLabel;html=1;align=center;verticalAlign=middle;resizable=0;points=[];" parent="e3faSNz6x6QTLMcB8ye6-19" vertex="1" connectable="0">
          <mxGeometry x="-0.0697" y="-1" relative="1" as="geometry">
            <mxPoint as="offset" />
          </mxGeometry>
        </mxCell>
        <mxCell id="e3faSNz6x6QTLMcB8ye6-22" value="&lt;span style=&quot;font-weight: 700;&quot;&gt;CONTACT NETWORK INFRASTRUCTURE HANDLER&lt;/span&gt;" style="whiteSpace=wrap;html=1;aspect=fixed;strokeColor=#FF00FF;" parent="1" vertex="1">
          <mxGeometry x="-423.01" y="1240" width="100" height="100" as="geometry" />
        </mxCell>
        <mxCell id="e3faSNz6x6QTLMcB8ye6-24" value="&lt;span style=&quot;font-weight: 700;&quot;&gt;CONTACT NETWORK INFRASTRUCTURE HANDLER&lt;/span&gt;" style="whiteSpace=wrap;html=1;aspect=fixed;strokeColor=#FF00FF;" parent="1" vertex="1">
          <mxGeometry x="40" y="967.36" width="100" height="100" as="geometry" />
        </mxCell>
        <mxCell id="e3faSNz6x6QTLMcB8ye6-27" value="" style="endArrow=none;html=1;rounded=0;entryX=0.972;entryY=0.775;entryDx=0;entryDy=0;entryPerimeter=0;" parent="1" target="e3faSNz6x6QTLMcB8ye6-26" edge="1">
          <mxGeometry width="50" height="50" relative="1" as="geometry">
            <mxPoint x="-610" y="1227.36" as="sourcePoint" />
            <mxPoint x="-590" y="1157.36" as="targetPoint" />
          </mxGeometry>
        </mxCell>
        <mxCell id="e3faSNz6x6QTLMcB8ye6-26" value="&lt;span style=&quot;font-weight: 700;&quot;&gt;CONTACT 4G PROVIDER HANDLER&lt;/span&gt;" style="whiteSpace=wrap;html=1;aspect=fixed;strokeColor=#FF9933;" parent="1" vertex="1">
          <mxGeometry x="-667" y="1227.3600000000001" width="100" height="100" as="geometry" />
        </mxCell>
        <mxCell id="e3faSNz6x6QTLMcB8ye6-29" value="" style="endArrow=none;html=1;rounded=0;" parent="1" edge="1">
          <mxGeometry width="50" height="50" relative="1" as="geometry">
            <mxPoint x="-690" y="850" as="sourcePoint" />
            <mxPoint x="-590" y="720" as="targetPoint" />
          </mxGeometry>
        </mxCell>
        <mxCell id="e3faSNz6x6QTLMcB8ye6-30" value="CORDLESS" style="edgeLabel;html=1;align=center;verticalAlign=middle;resizable=0;points=[];" parent="e3faSNz6x6QTLMcB8ye6-29" vertex="1" connectable="0">
          <mxGeometry x="-0.5297" y="-1" relative="1" as="geometry">
            <mxPoint x="4" y="-23" as="offset" />
          </mxGeometry>
        </mxCell>
        <mxCell id="e3faSNz6x6QTLMcB8ye6-31" value="CORDLESS QUALITY HANDLER" style="ellipse;whiteSpace=wrap;html=1;aspect=fixed;" parent="1" vertex="1">
          <mxGeometry x="-730" y="850" width="80" height="80" as="geometry" />
        </mxCell>
        <mxCell id="e3faSNz6x6QTLMcB8ye6-35" value="RACCOGLIERE CALLS LOG + INFORMAZIONI SUL DISPLAY&lt;br&gt;ESCALATION &lt;br&gt;TO&lt;br&gt;2ND LEVEL" style="whiteSpace=wrap;html=1;aspect=fixed;strokeColor=#00FF80;" parent="1" vertex="1">
          <mxGeometry x="-120" y="987.36" width="100" height="100" as="geometry" />
        </mxCell>
        <mxCell id="_rx_vY66gHbNphxzfWa2-1" value="" style="endArrow=none;html=1;rounded=0;" edge="1" parent="1" target="_rx_vY66gHbNphxzfWa2-2">
          <mxGeometry width="50" height="50" relative="1" as="geometry">
            <mxPoint x="70" y="60" as="sourcePoint" />
            <mxPoint x="280" y="150" as="targetPoint" />
          </mxGeometry>
        </mxCell>
        <mxCell id="_rx_vY66gHbNphxzfWa2-7" value="RICHIESTA APPUNTAMENTI" style="edgeLabel;html=1;align=center;verticalAlign=middle;resizable=0;points=[];" vertex="1" connectable="0" parent="_rx_vY66gHbNphxzfWa2-1">
          <mxGeometry x="0.0497" y="2" relative="1" as="geometry">
            <mxPoint x="9" y="13" as="offset" />
          </mxGeometry>
        </mxCell>
        <mxCell id="_rx_vY66gHbNphxzfWa2-2" value="BOOKING HANDLER" style="ellipse;whiteSpace=wrap;html=1;aspect=fixed;" vertex="1" parent="1">
          <mxGeometry x="170" y="180" width="80" height="80" as="geometry" />
        </mxCell>
        <mxCell id="_rx_vY66gHbNphxzfWa2-3" value="" style="endArrow=none;html=1;rounded=0;" edge="1" parent="1">
          <mxGeometry width="50" height="50" relative="1" as="geometry">
            <mxPoint x="70" y="40" as="sourcePoint" />
            <mxPoint x="370" y="160" as="targetPoint" />
          </mxGeometry>
        </mxCell>
        <mxCell id="_rx_vY66gHbNphxzfWa2-6" value="RICHIESTA INFORMAZIONI O PROCEDURE" style="edgeLabel;html=1;align=center;verticalAlign=middle;resizable=0;points=[];" vertex="1" connectable="0" parent="_rx_vY66gHbNphxzfWa2-3">
          <mxGeometry x="0.0437" y="-1" relative="1" as="geometry">
            <mxPoint x="53" y="-4" as="offset" />
          </mxGeometry>
        </mxCell>
        <mxCell id="_rx_vY66gHbNphxzfWa2-4" value="INFO HANDLER" style="ellipse;whiteSpace=wrap;html=1;aspect=fixed;" vertex="1" parent="1">
          <mxGeometry x="333" y="160" width="80" height="80" as="geometry" />
        </mxCell>
      </root>
    </mxGraphModel>
  </diagram>
</mxfile>
